<?xml version='1.0' encoding='UTF-8'?>
<svg xmlns="http://www.w3.org/2000/svg" width="1024" height="1024" viewBox="0 0 1024 1024"><defs><linearGradient id="longHair" x1="0%" y1="0%" x2="0%" y2="100%"><stop offset="0%" style="stop-color:#fff2b0;stop-opacity:1" /><stop offset="40%" style="stop-color:#ffd161;stop-opacity:1" /><stop offset="100%" style="stop-color:#f7b733;stop-opacity:1" /></linearGradient></defs><g><path d="M340 160 C 320 280 330 420 360 520 C 260 520 260 780 360 870 C 420 920 600 940 680 860 C 760 780 744 520 660 520 C 690 420 700 280 680 160 C 600 100 420 100 340 160 Z" fill="url(#longHair)" /><path d="M360 220 C 390 180 634 180 664 220 C 674 260 674 320 660 360 C 600 310 420 310 360 360 C 346 320 346 260 360 220 Z" fill="rgba(255,255,255,0.35)" /><path d="M360 260 C 340 420 420 620 360 780" stroke="rgba(255,255,255,0.2)" fill="none" stroke-width="12" /><path d="M420 260 C 400 420 480 620 420 780" stroke="rgba(255,255,255,0.2)" fill="none" stroke-width="12" /><path d="M480 260 C 460 420 540 620 480 780" stroke="rgba(255,255,255,0.2)" fill="none" stroke-width="12" /><path d="M540 260 C 520 420 600 620 540 780" stroke="rgba(255,255,255,0.2)" fill="none" stroke-width="12" /><path d="M600 260 C 580 420 660 620 600 780" stroke="rgba(255,255,255,0.2)" fill="none" stroke-width="12" /><path d="M660 260 C 640 420 720 620 660 780" stroke="rgba(255,255,255,0.2)" fill="none" stroke-width="12" /></g></svg>