<?xml version='1.0' encoding='UTF-8'?>
<svg xmlns="http://www.w3.org/2000/svg" width="1024" height="1024" viewBox="0 0 1024 1024"><defs><linearGradient id="topGradient" x1="0%" y1="0%" x2="0%" y2="100%"><stop offset="0%" style="stop-color:#ffde7d;stop-opacity:1" /><stop offset="50%" style="stop-color:#ff8fb1;stop-opacity:1" /><stop offset="100%" style="stop-color:#ff66a6;stop-opacity:1" /></linearGradient><linearGradient id="beltGrad" x1="0%" y1="0%" x2="0%" y2="100%"><stop offset="0%" style="stop-color:#ffe082;stop-opacity:1" /><stop offset="100%" style="stop-color:#fbc02d;stop-opacity:1" /></linearGradient></defs><g><path d="M400 360 C 430 320 594 320 624 360 L 640 520 C 576 540 448 540 384 520 Z" fill="url(#topGradient)" /><path d="M384 520 L 640 520 L 664 860 C 636 900 386 900 358 860 Z" fill="#3a6ba5" /><rect x="380" y="520" width="264" height="40" rx="18" fill="#2a4f7a" /><rect x="388" y="520" width="248" height="22" rx="12" fill="url(#beltGrad)" /><circle cx="512" cy="534" r="12" fill="#d172c2" /><rect x="410" y="574" width="28" height="90" rx="14" fill="rgba(255,255,255,0.2)" /><rect x="470" y="574" width="28" height="90" rx="14" fill="rgba(255,255,255,0.2)" /><rect x="530" y="574" width="28" height="90" rx="14" fill="rgba(255,255,255,0.2)" /><rect x="590" y="574" width="28" height="90" rx="14" fill="rgba(255,255,255,0.2)" /><path d="M380 520 L 360 860 C 380 900 644 900 664 860 L 640 520 Z" fill="none" stroke="rgba(255,255,255,0.15)" stroke-width="6" /><circle cx="430" cy="410" r="18" fill="#fff" /><circle cx="470" cy="400" r="12" fill="#ffd54f" /><circle cx="610" cy="400" r="14" fill="#64b5f6" /></g></svg>