<?xml version='1.0' encoding='UTF-8'?>
<svg xmlns="http://www.w3.org/2000/svg" width="1024" height="1024" viewBox="0 0 1024 1024"><defs><linearGradient id="princessSkirt" x1="0%" y1="0%" x2="0%" y2="100%"><stop offset="0%" style="stop-color:#ffb3f2;stop-opacity:1" /><stop offset="50%" style="stop-color:#f36dd5;stop-opacity:1" /><stop offset="100%" style="stop-color:#bf5fff;stop-opacity:1" /></linearGradient><linearGradient id="princessBodice" x1="0%" y1="0%" x2="0%" y2="100%"><stop offset="0%" style="stop-color:#ffd1fb;stop-opacity:1" /><stop offset="100%" style="stop-color:#e05cd6;stop-opacity:1" /></linearGradient></defs><g><path d="M390 350 C420 300 604 300 634 350 L664 530 C590 560 442 560 370 530 Z" fill="url(#princessBodice)" /><rect x="470" y="330" width="84" height="50" rx="26" fill="#ffe5ff" opacity="0.85" /><circle cx="512" cy="385" r="18" fill="#ffdcdc" /><path d="M320 520 C 280 700 300 880 360 930 L 664 930 C 716 864 734 688 702 520 Z" fill="url(#princessSkirt)" /><path d="M340 600 C 360 560 664 560 684 600 L 682 640 C 620 700 404 700 342 640 Z" fill="rgba(255,255,255,0.22)" /><path d="M340 640 C 360 600 664 600 684 640 L 682 680 C 620 740 404 740 342 680 Z" fill="rgba(255,255,255,0.22)" /><path d="M340 680 C 360 640 664 640 684 680 L 682 720 C 620 780 404 780 342 720 Z" fill="rgba(255,255,255,0.22)" /><path d="M360 720 C 330 690 350 650 360 660 C 370 650 390 690 360 720 Z" fill="rgba(255,255,255,0.35)" /><path d="M420 720 C 390 690 410 650 420 660 C 430 650 450 690 420 720 Z" fill="rgba(255,255,255,0.35)" /><path d="M480 720 C 450 690 470 650 480 660 C 490 650 510 690 480 720 Z" fill="rgba(255,255,255,0.35)" /><path d="M540 720 C 510 690 530 650 540 660 C 550 650 570 690 540 720 Z" fill="rgba(255,255,255,0.35)" /><path d="M600 720 C 570 690 590 650 600 660 C 610 650 630 690 600 720 Z" fill="rgba(255,255,255,0.35)" /><path d="M660 720 C 630 690 650 650 660 660 C 670 650 690 690 660 720 Z" fill="rgba(255,255,255,0.35)" /><ellipse cx="512" cy="540" rx="130" ry="26" fill="rgba(255,255,255,0.4)" /></g></svg>