<?xml version='1.0' encoding='UTF-8'?>
<svg xmlns="http://www.w3.org/2000/svg" width="1024" height="1024" viewBox="0 0 1024 1024"><defs><linearGradient id="balletLeo" x1="0%" y1="0%" x2="0%" y2="100%"><stop offset="0%" style="stop-color:#ffd1e8;stop-opacity:1" /><stop offset="100%" style="stop-color:#ff85c1;stop-opacity:1" /></linearGradient><radialGradient id="balletTutu" cx="50%" cy="50%" r="50%"><stop offset="0%" style="stop-color:#ffe6f3;stop-opacity:1" /><stop offset="70%" style="stop-color:#ff9bcf;stop-opacity:0.9" /><stop offset="100%" style="stop-color:#ff6fb4;stop-opacity:0.8" /></radialGradient></defs><g><path d="M420 360 C 440 320 584 320 604 360 L 620 560 C 560 600 464 600 404 560 Z" fill="url(#balletLeo)" /><path d="M340 600 C 320 700 340 840 512 860 C 684 840 704 700 684 600 Z" fill="url(#balletTutu)" opacity="0.92" /><line x1="522.0" y1="620.0" x2="672.0" y2="620.0" stroke="rgba(255,255,255,0.25)" stroke-width="4" /><line x1="521.781476007338" y1="622.0791169081776" x2="676.4605855485113" y2="654.95717659443" stroke="rgba(255,255,255,0.25)" stroke-width="4" /><line x1="521.135454576426" y1="624.067366430758" x2="671.7452048165256" y2="691.1231475248046" stroke="rgba(255,255,255,0.25)" stroke-width="4" /><line x1="520.0901699437495" y1="625.8778525229247" x2="656.8311367858679" y2="725.2259802542947" stroke="rgba(255,255,255,0.25)" stroke-width="4" /><line x1="518.6913060635886" y1="627.431448254774" x2="632.370197795116" y2="753.6846480837212" stroke="rgba(255,255,255,0.25)" stroke-width="4" /><line x1="517.0" y1="628.6602540378444" x2="600.6602540378444" y2="773.5640646055101" stroke="rgba(255,255,255,0.25)" stroke-width="4" /><line x1="515.0901699437495" y1="629.5105651629515" x2="565.0754317400184" y2="783.3493824947235" stroke="rgba(255,255,255,0.25)" stroke-width="4" /><line x1="513.0452846326765" y1="629.9452189536827" x2="529.1592079135557" y2="783.2589578353497" stroke="rgba(255,255,255,0.25)" stroke-width="4" /><line x1="510.95471536732344" y1="629.9452189536827" x2="495.7100996679066" y2="774.9880486824977" stroke="rgba(255,255,255,0.25)" stroke-width="4" /><line x1="508.90983005625054" y1="629.5105651629515" x2="466.18999354003523" y2="760.9887027197257" stroke="rgba(255,255,255,0.25)" stroke-width="4" /><line x1="507.0" y1="628.6602540378444" x2="440.6602540378444" y2="743.5640646055102" stroke="rgba(255,255,255,0.25)" stroke-width="4" /><line x1="505.30869393641143" y1="627.431448254774" x2="418.24840376028135" y2="724.121696069045" stroke="rgba(255,255,255,0.25)" stroke-width="4" /><line x1="503.90983005625054" y1="625.8778525229247" x2="397.9456985858847" y2="702.8653004792968" stroke="rgba(255,255,255,0.25)" stroke-width="4" /><line x1="502.864545423574" y1="624.067366430758" x2="379.41065837089343" y2="679.0325782594515" stroke="rgba(255,255,255,0.25)" stroke-width="4" /><line x1="502.21852399266197" y1="622.0791169081776" x2="363.4533533136934" y2="651.5745644672529" stroke="rgba(255,255,255,0.25)" stroke-width="4" /><line x1="502.0" y1="620.0" x2="352.0" y2="620.0" stroke="rgba(255,255,255,0.25)" stroke-width="4" /><line x1="502.21852399266197" y1="617.9208830918224" x2="347.5394144514888" y2="585.04282340557" stroke="rgba(255,255,255,0.25)" stroke-width="4" /><line x1="502.864545423574" y1="615.932633569242" x2="352.25479518347436" y2="548.8768524751954" stroke="rgba(255,255,255,0.25)" stroke-width="4" /><line x1="503.90983005625054" y1="614.1221474770753" x2="367.1688632141321" y2="514.7740197457053" stroke="rgba(255,255,255,0.25)" stroke-width="4" /><line x1="505.30869393641143" y1="612.568551745226" x2="391.629802204884" y2="486.3153519162788" stroke="rgba(255,255,255,0.25)" stroke-width="4" /><line x1="507.0" y1="611.3397459621556" x2="423.3397459621555" y2="466.4359353944899" stroke="rgba(255,255,255,0.25)" stroke-width="4" /><line x1="508.90983005625054" y1="610.4894348370485" x2="458.9245682599816" y2="456.6506175052765" stroke="rgba(255,255,255,0.25)" stroke-width="4" /><line x1="510.95471536732344" y1="610.0547810463173" x2="494.84079208644425" y2="456.74104216465025" stroke="rgba(255,255,255,0.25)" stroke-width="4" /><line x1="513.0452846326765" y1="610.0547810463173" x2="528.2899003320933" y2="465.0119513175023" stroke="rgba(255,255,255,0.25)" stroke-width="4" /><line x1="515.0901699437495" y1="610.4894348370485" x2="557.8100064599647" y2="479.01129728027433" stroke="rgba(255,255,255,0.25)" stroke-width="4" /><line x1="517.0" y1="611.3397459621556" x2="583.3397459621556" y2="496.43593539448983" stroke="rgba(255,255,255,0.25)" stroke-width="4" /><line x1="518.6913060635886" y1="612.568551745226" x2="605.7515962397185" y2="515.8783039309549" stroke="rgba(255,255,255,0.25)" stroke-width="4" /><line x1="520.0901699437495" y1="614.1221474770753" x2="626.0543014141153" y2="537.1346995207032" stroke="rgba(255,255,255,0.25)" stroke-width="4" /><line x1="521.135454576426" y1="615.932633569242" x2="644.5893416291066" y2="560.9674217405485" stroke="rgba(255,255,255,0.25)" stroke-width="4" /><line x1="521.781476007338" y1="617.9208830918224" x2="660.5466466863065" y2="588.425435532747" stroke="rgba(255,255,255,0.25)" stroke-width="4" /><ellipse cx="512" cy="620" rx="150" ry="34" fill="rgba(255,255,255,0.6)" /></g></svg>