<?xml version='1.0' encoding='UTF-8'?>
<svg xmlns="http://www.w3.org/2000/svg" width="1024" height="1024" viewBox="0 0 1024 1024"><defs><radialGradient id="starSparkle" cx="50%" cy="50%" r="50%"><stop offset="0%" style="stop-color:#fff8c6;stop-opacity:1" /><stop offset="60%" style="stop-color:#ffd700;stop-opacity:0.95" /><stop offset="100%" style="stop-color:#ffb347;stop-opacity:0.6" /></radialGradient></defs><g><polygon points="512.0,312.0 559.0228201833978,447.2786404500042 702.2113032590307,450.19660112501055 588.0845213036123,536.7213595499958 629.5570504584946,673.8033988749895 512.0,592.0 394.4429495415054,673.8033988749895 435.9154786963877,536.7213595499958 321.78869674096927,450.19660112501055 464.97717981660213,447.2786404500042" fill="url(#starSparkle)" stroke="#ffe082" stroke-width="12" stroke-linejoin="round" /><line x1="512" y1="512" x2="772.0" y2="512.0" stroke="rgba(255,255,255,0.2)" stroke-width="3" /><line x1="512" y1="512" x2="768.7989685547359" y2="552.67296091046" stroke="rgba(255,255,255,0.2)" stroke-width="3" /><line x1="512" y1="512" x2="759.27469423674" y2="592.3444185374863" stroke="rgba(255,255,255,0.2)" stroke-width="3" /><line x1="512" y1="512" x2="743.6616962889757" y2="630.0375299322822" stroke="rgba(255,255,255,0.2)" stroke-width="3" /><line x1="512" y1="512" x2="722.3444185374864" y2="664.824165596043" stroke="rgba(255,255,255,0.2)" stroke-width="3" /><line x1="512" y1="512" x2="695.8477631085024" y2="695.8477631085024" stroke="rgba(255,255,255,0.2)" stroke-width="3" /><line x1="512" y1="512" x2="664.824165596043" y2="722.3444185374864" stroke="rgba(255,255,255,0.2)" stroke-width="3" /><line x1="512" y1="512" x2="630.0375299322822" y2="743.6616962889757" stroke="rgba(255,255,255,0.2)" stroke-width="3" /><line x1="512" y1="512" x2="592.3444185374864" y2="759.27469423674" stroke="rgba(255,255,255,0.2)" stroke-width="3" /><line x1="512" y1="512" x2="552.67296091046" y2="768.7989685547359" stroke="rgba(255,255,255,0.2)" stroke-width="3" /><line x1="512" y1="512" x2="512.0" y2="772.0" stroke="rgba(255,255,255,0.2)" stroke-width="3" /><line x1="512" y1="512" x2="471.32703908954" y2="768.7989685547359" stroke="rgba(255,255,255,0.2)" stroke-width="3" /><line x1="512" y1="512" x2="431.6555814625137" y2="759.27469423674" stroke="rgba(255,255,255,0.2)" stroke-width="3" /><line x1="512" y1="512" x2="393.96247006771785" y2="743.6616962889757" stroke="rgba(255,255,255,0.2)" stroke-width="3" /><line x1="512" y1="512" x2="359.175834403957" y2="722.3444185374864" stroke="rgba(255,255,255,0.2)" stroke-width="3" /><line x1="512" y1="512" x2="328.15223689149764" y2="695.8477631085024" stroke="rgba(255,255,255,0.2)" stroke-width="3" /><line x1="512" y1="512" x2="301.6555814625137" y2="664.824165596043" stroke="rgba(255,255,255,0.2)" stroke-width="3" /><line x1="512" y1="512" x2="280.33830371102437" y2="630.0375299322822" stroke="rgba(255,255,255,0.2)" stroke-width="3" /><line x1="512" y1="512" x2="264.72530576326005" y2="592.3444185374864" stroke="rgba(255,255,255,0.2)" stroke-width="3" /><line x1="512" y1="512" x2="255.20103144526422" y2="552.67296091046" stroke="rgba(255,255,255,0.2)" stroke-width="3" /><line x1="512" y1="512" x2="252.0" y2="512.0" stroke="rgba(255,255,255,0.2)" stroke-width="3" /><line x1="512" y1="512" x2="255.20103144526416" y2="471.32703908954" stroke="rgba(255,255,255,0.2)" stroke-width="3" /><line x1="512" y1="512" x2="264.72530576326005" y2="431.65558146251374" stroke="rgba(255,255,255,0.2)" stroke-width="3" /><line x1="512" y1="512" x2="280.3383037110243" y2="393.96247006771785" stroke="rgba(255,255,255,0.2)" stroke-width="3" /><line x1="512" y1="512" x2="301.6555814625136" y2="359.175834403957" stroke="rgba(255,255,255,0.2)" stroke-width="3" /><line x1="512" y1="512" x2="328.15223689149764" y2="328.15223689149764" stroke="rgba(255,255,255,0.2)" stroke-width="3" /><line x1="512" y1="512" x2="359.17583440395697" y2="301.6555814625137" stroke="rgba(255,255,255,0.2)" stroke-width="3" /><line x1="512" y1="512" x2="393.9624700677178" y2="280.33830371102437" stroke="rgba(255,255,255,0.2)" stroke-width="3" /><line x1="512" y1="512" x2="431.6555814625136" y2="264.72530576326005" stroke="rgba(255,255,255,0.2)" stroke-width="3" /><line x1="512" y1="512" x2="471.32703908953994" y2="255.20103144526422" stroke="rgba(255,255,255,0.2)" stroke-width="3" /><line x1="512" y1="512" x2="511.99999999999994" y2="252.0" stroke="rgba(255,255,255,0.2)" stroke-width="3" /><line x1="512" y1="512" x2="552.67296091046" y2="255.20103144526416" stroke="rgba(255,255,255,0.2)" stroke-width="3" /><line x1="512" y1="512" x2="592.3444185374863" y2="264.72530576326005" stroke="rgba(255,255,255,0.2)" stroke-width="3" /><line x1="512" y1="512" x2="630.0375299322822" y2="280.3383037110243" stroke="rgba(255,255,255,0.2)" stroke-width="3" /><line x1="512" y1="512" x2="664.8241655960429" y2="301.6555814625136" stroke="rgba(255,255,255,0.2)" stroke-width="3" /><line x1="512" y1="512" x2="695.8477631085022" y2="328.15223689149764" stroke="rgba(255,255,255,0.2)" stroke-width="3" /><line x1="512" y1="512" x2="722.3444185374863" y2="359.1758344039569" stroke="rgba(255,255,255,0.2)" stroke-width="3" /><line x1="512" y1="512" x2="743.6616962889757" y2="393.9624700677178" stroke="rgba(255,255,255,0.2)" stroke-width="3" /><line x1="512" y1="512" x2="759.27469423674" y2="431.6555814625136" stroke="rgba(255,255,255,0.2)" stroke-width="3" /><line x1="512" y1="512" x2="768.7989685547358" y2="471.3270390895399" stroke="rgba(255,255,255,0.2)" stroke-width="3" /></g></svg>